<svg xmlns="http://www.w3.org/2000/svg" width="34" height="39.935" viewBox="0 0 34 39.935">
  <path id="Path_11" data-name="Path 11" d="M10.182,39.933l-.127-.013a3.964,3.964,0,0,1-1.075-.276,3.9,3.9,0,0,1-1.563-1.186.79.79,0,0,1-.248-.562.581.581,0,0,1,.02-.176A.673.673,0,0,1,8.1,37.28a.737.737,0,0,1,.241.173c.017.022.056.072.085.112a2.554,2.554,0,0,0,1.249.9,2.982,2.982,0,0,0,.438.106c.088.015.662.016,10.18.016H30.383l.118-.02a2.563,2.563,0,0,0,2.147-2.313c.006-.073.009-3.979.009-11.94,0-9.839,0-11.833-.012-11.841s-.832-.011-2.985-.013c-2.744,0-2.981,0-3.086-.019a4.226,4.226,0,0,1-.5-.094,3.9,3.9,0,0,1-2.893-3.136,30.456,30.456,0,0,1-.055-4.121l0-3.745H16.669c-6.256,0-6.454,0-6.56.017A2.564,2.564,0,0,0,7.947,3.574c-.015.1-.016.755-.021,11.611,0,10.819-.006,11.506-.02,11.553a1.1,1.1,0,0,1-.054.127.529.529,0,0,1-.121.16.5.5,0,0,1-.169.125.591.591,0,0,1-.3.073A.661.661,0,0,1,6.6,26.71c-.016-.055-.016-.6-.016-11.557,0-11.056,0-11.5.016-11.648A3.891,3.891,0,0,1,9.042.27a3.847,3.847,0,0,1,1.1-.26C10.21,0,12.579,0,17.071,0c6.3,0,6.831,0,6.887.015A.688.688,0,0,1,24.283.2c.026.027,1.01,1.174,2.187,2.55l4.761,5.56c1.441,1.682,2.637,3.083,2.658,3.114a.725.725,0,0,1,.1.246c.013.072.014,24.454,0,24.641a3.9,3.9,0,0,1-3.386,3.6l-.141.02H20.337C14.766,39.936,10.2,39.935,10.182,39.933ZM31.836,11.109c.007-.018-7.331-8.587-7.35-8.583s-.014.3-.014,3.108a22.134,22.134,0,0,0,.05,3.445A2.553,2.553,0,0,0,26.7,11.1l.113.013c.015,0,1.15,0,2.522,0C31.481,11.122,31.832,11.12,31.836,11.109ZM4.9,37.224a7.176,7.176,0,0,1-1.5-.213A4.688,4.688,0,0,1,.45,34.979a4.333,4.333,0,0,1-.244-.512,3.57,3.57,0,0,1-.184-.748,3.682,3.682,0,0,1,.023-.962,4.97,4.97,0,0,1,2.827-3.373,7.9,7.9,0,0,1,4.975-.7,5.589,5.589,0,0,1,2.329,1.01c.1.079.122.093.129.086s0-4.595.007-10.207l0-10.2.025-.072a.645.645,0,0,1,.17-.269.5.5,0,0,1,.164-.12.876.876,0,0,1,.15-.057.83.83,0,0,1,.29,0,.678.678,0,0,1,.482.391.883.883,0,0,1,.058.376,3.218,3.218,0,0,0,.317,1.38A4.135,4.135,0,0,0,14.1,12.815c.433.206.824.366,1.826.749a20.729,20.729,0,0,1,1.947.817,6.653,6.653,0,0,1,1.783,1.2,4.047,4.047,0,0,1,.859,1.171,4.522,4.522,0,0,1,.449,1.739c.012.17.012.59,0,.776a10.187,10.187,0,0,1-.85,3.282c-.141.335-.5,1.1-.577,1.233a.829.829,0,0,1-.22.22.674.674,0,0,1-.636.036.65.65,0,0,1-.386-.609.91.91,0,0,1,.15-.472A12.653,12.653,0,0,0,19.5,20.02a4.236,4.236,0,0,0-.145-2.557,2.914,2.914,0,0,0-.718-.99,5.709,5.709,0,0,0-1.348-.88,20.968,20.968,0,0,0-1.952-.813,20.5,20.5,0,0,1-2.02-.854,6.961,6.961,0,0,1-1.537-1.006c-.066-.059-.11-.091-.116-.086s-.009,3.821-.011,9.95c0,9.469,0,9.944-.019,9.993-.009.028-.024.071-.034.094a1.547,1.547,0,0,0-.049.2,4.119,4.119,0,0,1-.956,1.884,6.876,6.876,0,0,1-.587.585,7.377,7.377,0,0,1-4.02,1.648A8.457,8.457,0,0,1,4.9,37.224Zm.509-1.344a6.651,6.651,0,0,0,1.654-.268,4.817,4.817,0,0,0,2.964-2.188,1.974,1.974,0,0,0,.023-1.866A3.174,3.174,0,0,0,8.2,30.165a5.577,5.577,0,0,0-1.321-.26,8.481,8.481,0,0,0-.967,0,6.367,6.367,0,0,0-2.948.974,3.539,3.539,0,0,0-1.545,1.9,1.719,1.719,0,0,0-.072.546,1.507,1.507,0,0,0,.058.482,3.113,3.113,0,0,0,2.506,1.942,6.013,6.013,0,0,0,1.24.14C5.172,35.888,5.286,35.885,5.406,35.88Zm12.3-4.14a.674.674,0,0,1-.43-.35.576.576,0,0,1-.068-.3.514.514,0,0,1,.021-.182.688.688,0,0,1,.482-.469c.056-.015.3-.016,5.084-.019,3.622,0,5.047,0,5.1.007a.681.681,0,0,1,.391.191.648.648,0,0,1,.194.477.626.626,0,0,1-.2.473.475.475,0,0,1-.168.124.873.873,0,0,1-.151.056c-.059.013-.54.014-5.13.014C17.922,31.758,17.77,31.757,17.707,31.741Zm-.813-3.732a.672.672,0,0,1-.012-1.325c.048-.008,1.458-.01,5.938-.008l5.874,0,.063.021a.676.676,0,0,1,.451.455.525.525,0,0,1,.021.2.444.444,0,0,1-.028.207.631.631,0,0,1-.152.25.662.662,0,0,1-.277.176l-.086.03H22.811C19.58,28.016,16.917,28.013,16.894,28.009Zm0,0" transform="translate(-0.001)" fill="#b5b5b5"/>
</svg>
